<mxfile host="app.diagrams.net" modified="2022-04-24T02:04:46.327Z" agent="5.0 (X11; Linux x86_64) AppleWebKit/537.36 (KHTML, like Gecko) Chrome/93.0.4577.63 Safari/537.36" etag="of_rp6JJkgdWqkz1fDij" version="17.4.6" type="github">
  <diagram id="DpFBj8TZs9Hdc5gK09Gh" name="Page-1">
    <mxGraphModel dx="1910" dy="744" grid="1" gridSize="10" guides="1" tooltips="1" connect="1" arrows="1" fold="1" page="1" pageScale="1" pageWidth="827" pageHeight="1169" math="0" shadow="0">
      <root>
        <mxCell id="0" />
        <mxCell id="1" parent="0" />
        <mxCell id="H8TTxolA3oLyKh7ImpaG-4" value="SurfaceComposerClient" style="shape=umlLifeline;perimeter=lifelinePerimeter;whiteSpace=wrap;html=1;container=1;collapsible=0;recursiveResize=0;outlineConnect=0;" vertex="1" parent="1">
          <mxGeometry x="-750" y="40" width="130" height="300" as="geometry" />
        </mxCell>
        <mxCell id="H8TTxolA3oLyKh7ImpaG-5" value="ComposerService" style="shape=umlLifeline;perimeter=lifelinePerimeter;whiteSpace=wrap;html=1;container=1;collapsible=0;recursiveResize=0;outlineConnect=0;" vertex="1" parent="1">
          <mxGeometry x="-570" y="40" width="130" height="300" as="geometry" />
        </mxCell>
        <mxCell id="H8TTxolA3oLyKh7ImpaG-6" value="ISurfaceComposer" style="shape=umlLifeline;perimeter=lifelinePerimeter;whiteSpace=wrap;html=1;container=1;collapsible=0;recursiveResize=0;outlineConnect=0;" vertex="1" parent="1">
          <mxGeometry x="-380" y="40" width="130" height="300" as="geometry" />
        </mxCell>
        <mxCell id="H8TTxolA3oLyKh7ImpaG-7" value="SurfaceFlinger" style="shape=umlLifeline;perimeter=lifelinePerimeter;whiteSpace=wrap;html=1;container=1;collapsible=0;recursiveResize=0;outlineConnect=0;" vertex="1" parent="1">
          <mxGeometry x="-210" y="40" width="130" height="300" as="geometry" />
        </mxCell>
        <mxCell id="H8TTxolA3oLyKh7ImpaG-8" value="HWComposer" style="shape=umlLifeline;perimeter=lifelinePerimeter;whiteSpace=wrap;html=1;container=1;collapsible=0;recursiveResize=0;outlineConnect=0;" vertex="1" parent="1">
          <mxGeometry x="-40" y="40" width="130" height="300" as="geometry" />
        </mxCell>
        <mxCell id="H8TTxolA3oLyKh7ImpaG-9" value="HWC2::Display" style="shape=umlLifeline;perimeter=lifelinePerimeter;whiteSpace=wrap;html=1;container=1;collapsible=0;recursiveResize=0;outlineConnect=0;" vertex="1" parent="1">
          <mxGeometry x="150" y="40" width="130" height="300" as="geometry" />
        </mxCell>
        <mxCell id="H8TTxolA3oLyKh7ImpaG-10" value="Hwc2::Composer" style="shape=umlLifeline;perimeter=lifelinePerimeter;whiteSpace=wrap;html=1;container=1;collapsible=0;recursiveResize=0;outlineConnect=0;" vertex="1" parent="1">
          <mxGeometry x="330" y="40" width="130" height="300" as="geometry" />
        </mxCell>
      </root>
    </mxGraphModel>
  </diagram>
</mxfile>
